  http://www.scenespeeds.com/





Format: AVI 
Format/Info: Audio Video Interleave 
File size: 1.61 GiB 
Duration: 1h 45mn 
Overall bit rate: 2 175 Kbps 

Video 
ID: 0 
Format: MPEG-4 Visual 
Format profile: Advanced Simple@L5 
Format settings, BVOP: 2 
Format settings, QPel: No 
Format settings, GMC: No warppoints 
Format settings, Matrix: Default (H.263) 
Codec ID: XVID 
Codec ID/Hint: XviD 
Duration: 1h 45mn 
Bit rate: 1 971 Kbps 
Width: 720 pixels 
Height: 320 pixels 
Display aspect ratio: 2.25:1 
Frame rate: 25.000 fps 
Color space: YUV 
Chroma subsampling: 4:2:0 
Bit depth: 8 bits 
Scan type: Progressive 
Compression mode: Lossy 
Bits/(Pixel*Frame): 0.342 
Stream size: 1.46 GiB (91%) 
Writing library: XviD 63 

Audio 
ID: 1 
Format: MPEG Audio 
Format version: Version 1 
Format profile: Layer 3 
Mode: Joint stereo 
Mode extension: MS Stereo 
Codec ID: 55 
Codec ID/Hint: MP3 
Duration: 1h 45mn 
Bit rate mode: Constant 
Bit rate: 32.0 Kbps 
Channel(s): 2 channels 
Sampling rate: 48.0 KHz 
Compression mode: Lossy 
Stream size: 145 MiB (9%) 
___ _ ___ _ _ _ 
| _ ___| |___ __ _ ___ ___ |  ___ ___ __ _ _(_)_ __| |_(_)___ _ _ 
| / -_) / -_) _` (_-|_|____|______,_/__/___| |___/___/__/__|_| |_| .__/__|____/_||_| 
|_| 

Title: The Raven (2012) 

110 min - Mystery | Thriller - 9 March 2012 (UK) 

Plot: 
When a madman begins committing horrific murders inspired by Edgar Allan Poe's works, a young 
Baltimore detective joins forces with Poe to stop him from making his stories a reality 

IMDb Link: http://www.imdb.com/title/tt1486192/ 
___ _ _ _ 
/ __|_ _ ___ _ _ _ __ | | |___| |_ ___ ___ 
|(_ | '_/ _  || | '_  | .` / _  _/ -_|_-< 
___|_| ___/_,_| .__/ |_|____/_____/__/ 
|_| 

Encoder: SMiLE 

Source: 
Video: Russian DVD-R (Thanks!) 
Audio: HOKNOWS (Thanks!) 

Notes: 
READNFO: Yes, audio is CAM, pretty good as CAM standards go - I've heard a lot worse but a lot 
better, so do with that information as you so wish. Also be warned, at certain high tense moments 
the audio can get pretty loud, so hold onto your bitz






  http://www.scenespeeds.com/